# xmcd
#
# Track frame offsets:
#	180
#	15106
#	22611
#	43589
#	70434
#	86681
#	103864
#	121846
#	138534
#	150913
#	168083
#	180752
#
# Disc length: 2619 seconds
#
# Revision: 0
# Processed by: cddbd v1.5PL3 Copyright (c) Steve Scherf et al.
# Submitted via: dBpowerAMP V4.0
#
DISCID=7e0a390c
DTITLE=Built For Comfort Blues Band - High Ballin'
DYEAR=1900
DGENRE=Blues
TTITLE0=Think it Over
TTITLE1=Settin' Son
TTITLE2=Give Me One More Time
TTITLE3=You Burned Me
TTITLE4=Keep Teasin' Me
TTITLE5=Number 9 Train
TTITLE6=High Ball
TTITLE7=Tailspin
TTITLE8=Crazy Music
TTITLE9=Can't Get Enough
TTITLE10=Easy Ride
TTITLE11=What I'm Going Through
EXTD=
EXTT0=
EXTT1=
EXTT2=
EXTT3=
EXTT4=
EXTT5=
EXTT6=
EXTT7=
EXTT8=
EXTT9=
EXTT10=
EXTT11=
PLAYORDER=
